<svg xmlns="http://www.w3.org/2000/svg" xmlns:xlink="http://www.w3.org/1999/xlink" version="1.1" preserveAspectRatio="none" x="0px" y="0px" viewBox="0 0 100 100"><defs><g id="a"><path fill="#000000" stroke="none" d=" M 81.4 34.05 L 84.85 18.75 Q 86.25 12.55 81.2 14.55 L 67.75 20 Q 60.15 15.25 50.7 14.9 38.65 15.25 30.9 20 L 17.6 14.55 Q 14.8 13.4 14 14.9 13.4 16.05 14 18.75 L 17.45 33.95 Q 13.5 40.45 11.75 48.15 11.6 49.05 11.45 50.05 11.35 50.2 11.35 50.35 L 5 86 95 86 87.8 50.35 Q 87.8 50.2 87.75 50.05 86 41.25 81.4 34.05 M 73 30.45 Q 75.4 32.7 75.4 36 75.4 39.3 73 41.5 70.8 43.9 67.5 43.9 64.25 43.9 61.85 41.5 59.65 39.3 59.65 36 59.65 32.7 61.85 30.45 64.25 28.15 67.5 28.15 70.8 28.15 73 30.45 M 30.75 28.15 Q 34 28.15 36.25 30.45 38.65 32.7 38.65 36 38.65 39.3 36.25 41.5 34 43.9 30.75 43.9 27.45 43.9 25.15 41.5 22.85 39.3 22.85 36 22.85 32.7 25.15 30.45 27.45 28.15 30.75 28.15 M 43.3 39.95 Q 43.305078125 39.91328125 43.3 39.85 43.30546875 39.2322265625 43.65 38.75 43.68203125 38.7072265625 43.7 38.65 44.14453125 38.3044921875 44.85 38.3 L 53.7 38.3 Q 54.5544921875 38.3060546875 54.85 38.75 55.3048828125 39.2341796875 55.3 39.85 L 55.3 39.95 Q 55.334375 40.4353515625 54.8 40.9 L 51.1 44.65 Q 51.065234375 44.690625 51 44.7 50.398828125 45.13984375 49.8 45.25 L 49.8 47.2 52.8 50.25 Q 52.9482421875 50.396484375 52.95 50.6 52.9478515625 50.8060546875 52.8 50.95 52.6537109375 51.0986328125 52.45 51.1 52.2443359375 51.09765625 52.1 50.95 L 49.3 48.1 46.45 50.95 Q 46.3052734375 51.0982421875 46.1 51.1 45.8947265625 51.0982421875 45.75 50.95 45.6017578125 50.8052734375 45.6 50.6 45.6017578125 50.3947265625 45.75 50.25 L 48.8 47.2 48.8 45.25 Q 48.1619140625 45.1470703125 47.5 44.7 47.484765625 44.690625 47.45 44.65 L 43.75 40.95 Q 43.705859375 40.9048828125 43.65 40.85 43.44140625 40.4416015625 43.3 39.95 M 34.4 32.25 Q 32.95 30.75 30.75 30.75 28.6 30.75 27.15 32.25 25.45 33.85 25.45 36 25.45 38.15 27.15 39.6 28.6 41.25 30.75 41.25 32.95 41.25 34.4 39.6 36 38.15 36 36 36 33.85 34.4 32.25 M 72.8 36 Q 72.8 33.85 71.15 32.25 69.65 30.75 67.5 30.75 65.3 30.75 63.85 32.25 62.25 33.85 62.25 36 62.25 38.15 63.85 39.6 65.3 41.25 67.5 41.25 69.65 41.25 71.15 39.6 72.8 38.15 72.8 36 Z"></path></g></defs><g transform="matrix( 1, 0, 0, 1, 0,0) "><use xlink:href="#a"></use></g></svg>